# xmcd
#
# Track frame offsets:
# 150
# 22752
# 42795
# 59385
# 72900
# 94090
# 110867
# 122637
# 141685
# 162835
#
# Disc length: 2517 seconds
#
# Revision: 0
# Processed by: cddbd v1.5.2PL0 Copyright (c) Steve Scherf et al.
# Submitted via: Audion 3.0.2 (http://www.panic.com/audion/)
#
DISCID=8b09d30a
DTITLE=Hakan Polat - Sounds of Universe
DYEAR=1900
DGENRE=
TTITLE0=Dream
TTITLE1=Asia
TTITLE2=Hako
TTITLE3=Kafl
TTITLE4=Rose
TTITLE5=Trgy
TTITLE6=World
TTITLE7=Darbuka
TTITLE8=Sokerdan
TTITLE9=Father
EXTD=
EXTT0=
EXTT1=
EXTT2=
EXTT3=
EXTT4=
EXTT5=
EXTT6=
EXTT7=
EXTT8=
EXTT9=
PLAYORDER=
